<mxfile host="app.diagrams.net" agent="Mozilla/5.0 (Windows NT 10.0; Win64; x64) AppleWebKit/537.36 (KHTML, like Gecko) Chrome/141.0.0.0 Safari/537.36 Edg/141.0.0.0" version="28.2.7">
  <diagram name="Seite-1" id="rIPOSmoHh3iet0nt6kMm">
    <mxGraphModel dx="938" dy="640" grid="1" gridSize="10" guides="1" tooltips="1" connect="1" arrows="1" fold="1" page="1" pageScale="1" pageWidth="1169" pageHeight="827" math="0" shadow="0">
      <root>
        <mxCell id="0" />
        <mxCell id="1" parent="0" />
        <mxCell id="eMUDMDsz74NXcsutTIzp-2" value="Test" style="rounded=0;whiteSpace=wrap;html=1;" parent="1" vertex="1">
          <mxGeometry x="130" y="150" width="60" height="40" as="geometry" />
        </mxCell>
        <mxCell id="eMUDMDsz74NXcsutTIzp-9" style="rounded=0;orthogonalLoop=1;jettySize=auto;html=1;entryX=1;entryY=0;entryDx=0;entryDy=0;curved=1;exitX=0;exitY=1;exitDx=0;exitDy=0;" parent="1" source="eMUDMDsz74NXcsutTIzp-7" target="eMUDMDsz74NXcsutTIzp-8" edge="1">
          <mxGeometry relative="1" as="geometry" />
        </mxCell>
        <mxCell id="eMUDMDsz74NXcsutTIzp-11" style="rounded=0;orthogonalLoop=1;jettySize=auto;html=1;exitX=1;exitY=1;exitDx=0;exitDy=0;entryX=0;entryY=0;entryDx=0;entryDy=0;" parent="1" source="eMUDMDsz74NXcsutTIzp-7" target="eMUDMDsz74NXcsutTIzp-10" edge="1">
          <mxGeometry relative="1" as="geometry" />
        </mxCell>
        <mxCell id="eMUDMDsz74NXcsutTIzp-7" value="Q0" style="text;html=1;whiteSpace=wrap;strokeColor=none;fillColor=none;align=center;verticalAlign=middle;rounded=0;" parent="1" vertex="1">
          <mxGeometry x="280" y="170" width="30" height="20" as="geometry" />
        </mxCell>
        <mxCell id="eMUDMDsz74NXcsutTIzp-8" value="T" style="text;html=1;whiteSpace=wrap;strokeColor=none;fillColor=none;align=center;verticalAlign=middle;rounded=0;" parent="1" vertex="1">
          <mxGeometry x="230" y="220" width="30" height="20" as="geometry" />
        </mxCell>
        <mxCell id="eMUDMDsz74NXcsutTIzp-14" style="rounded=0;orthogonalLoop=1;jettySize=auto;html=1;exitX=0;exitY=1;exitDx=0;exitDy=0;entryX=1;entryY=0;entryDx=0;entryDy=0;" parent="1" source="eMUDMDsz74NXcsutTIzp-10" target="eMUDMDsz74NXcsutTIzp-13" edge="1">
          <mxGeometry relative="1" as="geometry" />
        </mxCell>
        <mxCell id="eMUDMDsz74NXcsutTIzp-17" style="rounded=0;orthogonalLoop=1;jettySize=auto;html=1;exitX=1;exitY=1;exitDx=0;exitDy=0;entryX=0;entryY=0;entryDx=0;entryDy=0;" parent="1" source="eMUDMDsz74NXcsutTIzp-10" target="eMUDMDsz74NXcsutTIzp-16" edge="1">
          <mxGeometry relative="1" as="geometry" />
        </mxCell>
        <mxCell id="eMUDMDsz74NXcsutTIzp-10" value="Q1" style="text;html=1;whiteSpace=wrap;strokeColor=none;fillColor=none;align=center;verticalAlign=middle;rounded=0;" parent="1" vertex="1">
          <mxGeometry x="330" y="220" width="30" height="20" as="geometry" />
        </mxCell>
        <mxCell id="eMUDMDsz74NXcsutTIzp-13" value="e" style="text;html=1;whiteSpace=wrap;strokeColor=none;fillColor=none;align=center;verticalAlign=middle;rounded=0;" parent="1" vertex="1">
          <mxGeometry x="280" y="270" width="30" height="20" as="geometry" />
        </mxCell>
        <mxCell id="eMUDMDsz74NXcsutTIzp-19" style="rounded=0;orthogonalLoop=1;jettySize=auto;html=1;exitX=0;exitY=1;exitDx=0;exitDy=0;entryX=1;entryY=0;entryDx=0;entryDy=0;" parent="1" source="eMUDMDsz74NXcsutTIzp-16" target="eMUDMDsz74NXcsutTIzp-18" edge="1">
          <mxGeometry relative="1" as="geometry" />
        </mxCell>
        <mxCell id="eMUDMDsz74NXcsutTIzp-21" style="rounded=0;orthogonalLoop=1;jettySize=auto;html=1;exitX=1;exitY=1;exitDx=0;exitDy=0;entryX=0;entryY=0;entryDx=0;entryDy=0;" parent="1" source="eMUDMDsz74NXcsutTIzp-16" target="eMUDMDsz74NXcsutTIzp-20" edge="1">
          <mxGeometry relative="1" as="geometry" />
        </mxCell>
        <mxCell id="eMUDMDsz74NXcsutTIzp-16" value="Q2" style="text;html=1;whiteSpace=wrap;strokeColor=none;fillColor=none;align=center;verticalAlign=middle;rounded=0;" parent="1" vertex="1">
          <mxGeometry x="380" y="270" width="30" height="20" as="geometry" />
        </mxCell>
        <mxCell id="eMUDMDsz74NXcsutTIzp-18" value="s" style="text;html=1;whiteSpace=wrap;strokeColor=none;fillColor=none;align=center;verticalAlign=middle;rounded=0;" parent="1" vertex="1">
          <mxGeometry x="330" y="320" width="30" height="20" as="geometry" />
        </mxCell>
        <mxCell id="eMUDMDsz74NXcsutTIzp-23" style="rounded=0;orthogonalLoop=1;jettySize=auto;html=1;exitX=0;exitY=1;exitDx=0;exitDy=0;entryX=1;entryY=0;entryDx=0;entryDy=0;" parent="1" source="eMUDMDsz74NXcsutTIzp-20" target="eMUDMDsz74NXcsutTIzp-22" edge="1">
          <mxGeometry relative="1" as="geometry" />
        </mxCell>
        <mxCell id="eMUDMDsz74NXcsutTIzp-20" value="Q2" style="text;html=1;whiteSpace=wrap;strokeColor=none;fillColor=none;align=center;verticalAlign=middle;rounded=0;" parent="1" vertex="1">
          <mxGeometry x="429" y="320" width="30" height="20" as="geometry" />
        </mxCell>
        <mxCell id="eMUDMDsz74NXcsutTIzp-22" value="t" style="text;html=1;whiteSpace=wrap;strokeColor=none;fillColor=none;align=center;verticalAlign=middle;rounded=0;" parent="1" vertex="1">
          <mxGeometry x="380" y="370" width="30" height="20" as="geometry" />
        </mxCell>
        <mxCell id="eMUDMDsz74NXcsutTIzp-24" value="Te_st2" style="rounded=0;whiteSpace=wrap;html=1;" parent="1" vertex="1">
          <mxGeometry x="80" y="310" width="60" height="40" as="geometry" />
        </mxCell>
        <mxCell id="eMUDMDsz74NXcsutTIzp-25" style="rounded=0;orthogonalLoop=1;jettySize=auto;html=1;entryX=1;entryY=0;entryDx=0;entryDy=0;curved=1;exitX=0;exitY=1;exitDx=0;exitDy=0;" parent="1" source="eMUDMDsz74NXcsutTIzp-27" target="eMUDMDsz74NXcsutTIzp-28" edge="1">
          <mxGeometry relative="1" as="geometry" />
        </mxCell>
        <mxCell id="eMUDMDsz74NXcsutTIzp-26" style="rounded=0;orthogonalLoop=1;jettySize=auto;html=1;exitX=1;exitY=1;exitDx=0;exitDy=0;entryX=0;entryY=0;entryDx=0;entryDy=0;" parent="1" source="eMUDMDsz74NXcsutTIzp-27" target="eMUDMDsz74NXcsutTIzp-31" edge="1">
          <mxGeometry relative="1" as="geometry" />
        </mxCell>
        <mxCell id="eMUDMDsz74NXcsutTIzp-27" value="Q0" style="text;html=1;whiteSpace=wrap;strokeColor=none;fillColor=none;align=center;verticalAlign=middle;rounded=0;" parent="1" vertex="1">
          <mxGeometry x="170" y="320" width="30" height="20" as="geometry" />
        </mxCell>
        <mxCell id="eMUDMDsz74NXcsutTIzp-28" value="T" style="text;html=1;whiteSpace=wrap;strokeColor=none;fillColor=none;align=center;verticalAlign=middle;rounded=0;" parent="1" vertex="1">
          <mxGeometry x="120" y="370" width="30" height="20" as="geometry" />
        </mxCell>
        <mxCell id="eMUDMDsz74NXcsutTIzp-29" style="rounded=0;orthogonalLoop=1;jettySize=auto;html=1;exitX=0;exitY=1;exitDx=0;exitDy=0;entryX=1;entryY=0;entryDx=0;entryDy=0;" parent="1" source="eMUDMDsz74NXcsutTIzp-31" target="eMUDMDsz74NXcsutTIzp-32" edge="1">
          <mxGeometry relative="1" as="geometry" />
        </mxCell>
        <mxCell id="eMUDMDsz74NXcsutTIzp-30" style="rounded=0;orthogonalLoop=1;jettySize=auto;html=1;exitX=1;exitY=1;exitDx=0;exitDy=0;entryX=0;entryY=0;entryDx=0;entryDy=0;" parent="1" source="eMUDMDsz74NXcsutTIzp-31" target="eMUDMDsz74NXcsutTIzp-35" edge="1">
          <mxGeometry relative="1" as="geometry" />
        </mxCell>
        <mxCell id="eMUDMDsz74NXcsutTIzp-31" value="Q1" style="text;html=1;whiteSpace=wrap;strokeColor=none;fillColor=none;align=center;verticalAlign=middle;rounded=0;" parent="1" vertex="1">
          <mxGeometry x="220" y="370" width="30" height="20" as="geometry" />
        </mxCell>
        <mxCell id="eMUDMDsz74NXcsutTIzp-32" value="e" style="text;html=1;whiteSpace=wrap;strokeColor=none;fillColor=none;align=center;verticalAlign=middle;rounded=0;" parent="1" vertex="1">
          <mxGeometry x="170" y="420" width="30" height="20" as="geometry" />
        </mxCell>
        <mxCell id="eMUDMDsz74NXcsutTIzp-33" style="rounded=0;orthogonalLoop=1;jettySize=auto;html=1;exitX=0;exitY=1;exitDx=0;exitDy=0;entryX=1;entryY=0;entryDx=0;entryDy=0;" parent="1" source="eMUDMDsz74NXcsutTIzp-35" target="eMUDMDsz74NXcsutTIzp-36" edge="1">
          <mxGeometry relative="1" as="geometry" />
        </mxCell>
        <mxCell id="eMUDMDsz74NXcsutTIzp-34" style="rounded=0;orthogonalLoop=1;jettySize=auto;html=1;exitX=1;exitY=1;exitDx=0;exitDy=0;entryX=0;entryY=0;entryDx=0;entryDy=0;" parent="1" source="eMUDMDsz74NXcsutTIzp-35" target="eMUDMDsz74NXcsutTIzp-38" edge="1">
          <mxGeometry relative="1" as="geometry" />
        </mxCell>
        <mxCell id="eMUDMDsz74NXcsutTIzp-35" value="Q1" style="text;html=1;whiteSpace=wrap;strokeColor=none;fillColor=none;align=center;verticalAlign=middle;rounded=0;" parent="1" vertex="1">
          <mxGeometry x="270" y="420" width="30" height="20" as="geometry" />
        </mxCell>
        <mxCell id="eMUDMDsz74NXcsutTIzp-36" value="_" style="text;html=1;whiteSpace=wrap;strokeColor=none;fillColor=none;align=center;verticalAlign=middle;rounded=0;" parent="1" vertex="1">
          <mxGeometry x="220" y="470" width="30" height="20" as="geometry" />
        </mxCell>
        <mxCell id="eMUDMDsz74NXcsutTIzp-37" style="rounded=0;orthogonalLoop=1;jettySize=auto;html=1;exitX=0;exitY=1;exitDx=0;exitDy=0;entryX=1;entryY=0;entryDx=0;entryDy=0;" parent="1" source="eMUDMDsz74NXcsutTIzp-38" target="eMUDMDsz74NXcsutTIzp-39" edge="1">
          <mxGeometry relative="1" as="geometry" />
        </mxCell>
        <mxCell id="eMUDMDsz74NXcsutTIzp-41" style="rounded=0;orthogonalLoop=1;jettySize=auto;html=1;exitX=1;exitY=1;exitDx=0;exitDy=0;entryX=0;entryY=0;entryDx=0;entryDy=0;" parent="1" source="eMUDMDsz74NXcsutTIzp-38" target="eMUDMDsz74NXcsutTIzp-40" edge="1">
          <mxGeometry relative="1" as="geometry" />
        </mxCell>
        <mxCell id="eMUDMDsz74NXcsutTIzp-38" value="Q2" style="text;html=1;whiteSpace=wrap;strokeColor=none;fillColor=none;align=center;verticalAlign=middle;rounded=0;" parent="1" vertex="1">
          <mxGeometry x="319" y="470" width="30" height="20" as="geometry" />
        </mxCell>
        <mxCell id="eMUDMDsz74NXcsutTIzp-39" value="s" style="text;html=1;whiteSpace=wrap;strokeColor=none;fillColor=none;align=center;verticalAlign=middle;rounded=0;" parent="1" vertex="1">
          <mxGeometry x="270" y="520" width="30" height="20" as="geometry" />
        </mxCell>
        <mxCell id="eMUDMDsz74NXcsutTIzp-43" style="rounded=0;orthogonalLoop=1;jettySize=auto;html=1;exitX=0;exitY=1;exitDx=0;exitDy=0;entryX=1;entryY=0;entryDx=0;entryDy=0;" parent="1" source="eMUDMDsz74NXcsutTIzp-40" target="eMUDMDsz74NXcsutTIzp-42" edge="1">
          <mxGeometry relative="1" as="geometry" />
        </mxCell>
        <mxCell id="eMUDMDsz74NXcsutTIzp-40" value="Q2" style="text;html=1;whiteSpace=wrap;strokeColor=none;fillColor=none;align=center;verticalAlign=middle;rounded=0;" parent="1" vertex="1">
          <mxGeometry x="370" y="520" width="30" height="20" as="geometry" />
        </mxCell>
        <mxCell id="eMUDMDsz74NXcsutTIzp-42" value="t" style="text;html=1;whiteSpace=wrap;strokeColor=none;fillColor=none;align=center;verticalAlign=middle;rounded=0;" parent="1" vertex="1">
          <mxGeometry x="319" y="570" width="30" height="20" as="geometry" />
        </mxCell>
        <mxCell id="eMUDMDsz74NXcsutTIzp-47" style="rounded=0;orthogonalLoop=1;jettySize=auto;html=1;exitX=0;exitY=1;exitDx=0;exitDy=0;entryX=1;entryY=0;entryDx=0;entryDy=0;" parent="1" source="eMUDMDsz74NXcsutTIzp-44" target="eMUDMDsz74NXcsutTIzp-46" edge="1">
          <mxGeometry relative="1" as="geometry" />
        </mxCell>
        <mxCell id="eMUDMDsz74NXcsutTIzp-44" value="Q2" style="text;html=1;whiteSpace=wrap;strokeColor=none;fillColor=none;align=center;verticalAlign=middle;rounded=0;" parent="1" vertex="1">
          <mxGeometry x="420" y="570" width="30" height="20" as="geometry" />
        </mxCell>
        <mxCell id="eMUDMDsz74NXcsutTIzp-45" style="rounded=0;orthogonalLoop=1;jettySize=auto;html=1;exitX=1;exitY=1;exitDx=0;exitDy=0;entryX=0;entryY=0;entryDx=0;entryDy=0;" parent="1" source="eMUDMDsz74NXcsutTIzp-40" target="eMUDMDsz74NXcsutTIzp-44" edge="1">
          <mxGeometry relative="1" as="geometry" />
        </mxCell>
        <mxCell id="eMUDMDsz74NXcsutTIzp-46" value="2" style="text;html=1;whiteSpace=wrap;strokeColor=none;fillColor=none;align=center;verticalAlign=middle;rounded=0;" parent="1" vertex="1">
          <mxGeometry x="370" y="620" width="30" height="20" as="geometry" />
        </mxCell>
      </root>
    </mxGraphModel>
  </diagram>
</mxfile>
